<svg width="32" height="31" viewBox="0 0 32 31" fill="none" xmlns="http://www.w3.org/2000/svg">
<path d="M30.542 0.505361C30.0171 -0.0194611 26.1506 -0.284013 21.4626 0.460385C21.801 0.647832 22.1491 0.840613 22.509 1.0409C25.1695 2.52004 28.5273 5.87674 30.0064 8.53833L30.5869 9.58369C31.3303 4.89672 31.0668 1.03019 30.542 0.505371L30.542 0.505361ZM17.6892 2.64748L16.239 1.68032C12.8469 2.75138 9.49238 4.41795 6.9786 6.93173C4.46589 9.44444 2.79825 12.8001 1.72826 16.1921C2.03887 16.658 2.36126 17.1422 2.69436 17.6423C5.06033 21.1897 9.85654 25.987 13.405 28.353L14.8552 29.3191C18.2472 28.248 21.6007 26.5825 24.1156 24.0687C26.6304 21.5549 28.2949 18.2004 29.3659 14.8083C29.0542 14.3413 28.7329 13.8572 28.3998 13.3581C26.0339 9.80967 21.2366 5.01346 17.6892 2.64748ZM21.6596 13.0443C21.4508 13.2531 21.1766 13.3581 20.9024 13.3581C20.6282 13.3581 20.354 13.2531 20.1452 13.0443L19.8313 12.7305L19.2037 13.3581L19.5175 13.6719C19.9363 14.0907 19.9363 14.7676 19.5175 15.1864C19.3087 15.3953 19.0345 15.5002 18.7603 15.5002C18.4861 15.5002 18.2119 15.3953 18.003 15.1864L17.6892 14.8726L17.0616 15.5002L17.3754 15.814C17.7942 16.2328 17.7942 16.9097 17.3754 17.3285C17.1665 17.5374 16.8923 17.6423 16.6182 17.6423C16.344 17.6423 16.0698 17.5374 15.8609 17.3285L15.5471 17.0147L14.9195 17.6423L15.2333 17.9562C15.6521 18.375 15.6521 19.0519 15.2333 19.4706C15.0244 19.6795 14.7502 19.7845 14.476 19.7845C14.2018 19.7845 13.9276 19.6795 13.7188 19.4706L13.405 19.1568L12.7773 19.7845L13.0912 20.0983C13.5099 20.5171 13.5099 21.194 13.0912 21.6128C12.8823 21.8216 12.6081 21.9266 12.3339 21.9266C12.0597 21.9266 11.7855 21.8216 11.5767 21.6128L9.43455 19.4706C9.01576 19.0519 9.01576 18.375 9.43455 17.9562C9.85333 17.5374 10.5302 17.5374 10.949 17.9562L11.2628 18.27L11.8905 17.6423L11.5767 17.3285C11.1579 16.9097 11.1579 16.2328 11.5767 15.814C11.9955 15.3953 12.6724 15.3953 13.0912 15.814L13.405 16.1279L14.0326 15.5002L13.7188 15.1864C13.3 14.7676 13.3 14.0907 13.7188 13.6719C14.1376 13.2531 14.8145 13.2531 15.2333 13.6719L15.5471 13.9857L16.1747 13.3581L15.8609 13.0443C15.4421 12.6255 15.4421 11.9486 15.8609 11.5298C16.2797 11.111 16.9566 11.111 17.3754 11.5298L17.6892 11.8436L18.3169 11.216L18.003 10.9022C17.5843 10.4834 17.5843 9.80646 18.003 9.38767C18.4218 8.96889 19.0987 8.96889 19.5175 9.38767L21.6596 11.5298C22.0784 11.9486 22.0784 12.6255 21.6596 13.0443ZM1.08777 22.4621L0.507252 21.4157C-0.237136 26.1037 0.0274161 29.9703 0.552235 30.4951C1.07706 31.0199 4.94359 31.2834 9.63162 30.5401C9.29424 30.3526 8.94614 30.1609 8.58627 29.9595C5.92361 28.4804 2.5669 25.1226 1.08777 22.4621Z" fill="white"/>
</svg>
