<svg width="50" height="50" viewBox="0 0 50 50" fill="none" xmlns="http://www.w3.org/2000/svg">
<path d="M13.5 27H23V36.5C23 36.775 23.225 37 23.5 37H26.5C26.775 37 27 36.775 27 36.5V27H36.5C36.775 27 37 26.775 37 26.5V23.5C37 23.225 36.775 23 36.5 23H27V13.5C27 13.225 26.775 13 26.5 13H23.5C23.225 13 23 13.225 23 13.5V23H13.5C13.225 23 13 23.225 13 23.5V26.5C13 26.775 13.225 27 13.5 27Z" fill="#505050"/>
<path d="M48 0H2C0.89375 0 0 0.89375 0 2V48C0 49.1063 0.89375 50 2 50H48C49.1063 50 50 49.1063 50 48V2C50 0.89375 49.1063 0 48 0ZM45.5 45.5H4.5V4.5H45.5V45.5Z" fill="#505050"/>
</svg>
