<svg width="321" height="39" viewBox="0 0 321 39" fill="none" xmlns="http://www.w3.org/2000/svg">
<path d="M244.542 5.50536C244.017 4.98054 240.151 4.71599 235.463 5.46039C235.801 5.64783 236.149 5.84061 236.509 6.0409C239.17 7.52004 242.527 10.8767 244.006 13.5383L244.587 14.5837C245.33 9.89672 245.067 6.03019 244.542 5.50537L244.542 5.50536ZM231.689 7.64748L230.239 6.68032C226.847 7.75138 223.492 9.41795 220.979 11.9317C218.466 14.4444 216.798 17.8001 215.728 21.1921C216.039 21.658 216.361 22.1422 216.694 22.6423C219.06 26.1897 223.857 30.987 227.405 33.353L228.855 34.3191C232.247 33.248 235.601 31.5825 238.116 29.0687C240.63 26.5549 242.295 23.2004 243.366 19.8083C243.054 19.3413 242.733 18.8572 242.4 18.3581C240.034 14.8097 235.237 10.0135 231.689 7.64748ZM235.66 18.0443C235.451 18.2531 235.177 18.3581 234.902 18.3581C234.628 18.3581 234.354 18.2531 234.145 18.0443L233.831 17.7305L233.204 18.3581L233.518 18.6719C233.936 19.0907 233.936 19.7676 233.518 20.1864C233.309 20.3953 233.034 20.5002 232.76 20.5002C232.486 20.5002 232.212 20.3953 232.003 20.1864L231.689 19.8726L231.062 20.5002L231.375 20.814C231.794 21.2328 231.794 21.9097 231.375 22.3285C231.167 22.5374 230.892 22.6423 230.618 22.6423C230.344 22.6423 230.07 22.5374 229.861 22.3285L229.547 22.0147L228.919 22.6423L229.233 22.9562C229.652 23.375 229.652 24.0519 229.233 24.4706C229.024 24.6795 228.75 24.7845 228.476 24.7845C228.202 24.7845 227.928 24.6795 227.719 24.4706L227.405 24.1568L226.777 24.7845L227.091 25.0983C227.51 25.5171 227.51 26.194 227.091 26.6128C226.882 26.8216 226.608 26.9266 226.334 26.9266C226.06 26.9266 225.786 26.8216 225.577 26.6128L223.435 24.4706C223.016 24.0519 223.016 23.375 223.435 22.9562C223.853 22.5374 224.53 22.5374 224.949 22.9562L225.263 23.27L225.89 22.6423L225.577 22.3285C225.158 21.9097 225.158 21.2328 225.577 20.814C225.995 20.3953 226.672 20.3953 227.091 20.814L227.405 21.1279L228.033 20.5002L227.719 20.1864C227.3 19.7676 227.3 19.0907 227.719 18.6719C228.138 18.2531 228.814 18.2531 229.233 18.6719L229.547 18.9857L230.175 18.3581L229.861 18.0443C229.442 17.6255 229.442 16.9486 229.861 16.5298C230.28 16.111 230.957 16.111 231.375 16.5298L231.689 16.8436L232.317 16.216L232.003 15.9022C231.584 15.4834 231.584 14.8065 232.003 14.3877C232.422 13.9689 233.099 13.9689 233.518 14.3877L235.66 16.5298C236.078 16.9486 236.078 17.6255 235.66 18.0443ZM215.088 27.4621L214.507 26.4157C213.763 31.1037 214.027 34.9703 214.552 35.4951C215.077 36.0199 218.944 36.2834 223.632 35.5401C223.294 35.3526 222.946 35.1609 222.586 34.9595C219.924 33.4804 216.567 30.1226 215.088 27.4621Z" fill="white"/>
<path d="M32.3242 30H28.3203V21.9922H5.97656V18.0078H28.3203V5.99609H13.9648C12.5977 5.99609 11.3086 6.26302 10.0977 6.79688C8.88672 7.31771 7.83203 8.03385 6.93359 8.94531C6.03516 9.84375 5.31901 10.8984 4.78516 12.1094C4.26432 13.3203 4.00391 14.6159 4.00391 15.9961V30H0V15.9961C0 14.707 0.16276 13.4701 0.488281 12.2852C0.826823 11.0872 1.29557 9.97396 1.89453 8.94531C2.50651 7.90365 3.23568 6.95964 4.08203 6.11328C4.94141 5.25391 5.88542 4.51823 6.91406 3.90625C7.95573 3.29427 9.06901 2.82552 10.2539 2.5C11.4388 2.16146 12.6758 1.99219 13.9648 1.99219H32.3242V30Z" fill="white"/>
<path d="M46.4062 30H45.4102C44.4336 30 43.5221 29.8177 42.6758 29.4531C41.8294 29.0885 41.0872 28.5938 40.4492 27.9688C39.8112 27.3307 39.3099 26.5885 38.9453 25.7422C38.5807 24.8828 38.3984 23.9714 38.3984 23.0078V0H42.4023V23.0078C42.4023 23.4245 42.4805 23.8151 42.6367 24.1797C42.793 24.5312 43.0078 24.8438 43.2812 25.1172C43.5547 25.3906 43.8737 25.6055 44.2383 25.7617C44.6029 25.918 44.9935 25.9961 45.4102 25.9961H46.4062V30Z" fill="white"/>
<path d="M75.8203 19.0039C75.8203 20.5143 75.5339 21.9336 74.9609 23.2617C74.388 24.5898 73.6068 25.7552 72.6172 26.7578C71.6276 27.7474 70.4688 28.5352 69.1406 29.1211C67.8125 29.694 66.3932 29.987 64.8828 30H49.8828V0H53.8867V25.9961H64.8828C65.8464 25.9961 66.7448 25.8138 67.5781 25.4492C68.4245 25.0716 69.1602 24.5703 69.7852 23.9453C70.4102 23.3073 70.9049 22.5651 71.2695 21.7188C71.6341 20.8724 71.8164 19.9674 71.8164 19.0039C71.8164 18.0404 71.6341 17.1354 71.2695 16.2891C70.9049 15.4427 70.4102 14.707 69.7852 14.082C69.1602 13.444 68.4245 12.9427 67.5781 12.5781C66.7448 12.2005 65.8464 12.0052 64.8828 11.9922H55.8984V8.00781H64.8828C66.3932 8.00781 67.8125 8.30078 69.1406 8.88672C70.4688 9.45964 71.6276 10.2474 72.6172 11.25C73.6068 12.2396 74.388 13.4049 74.9609 14.7461C75.5339 16.0742 75.8203 17.4935 75.8203 19.0039Z" fill="white"/>
<path d="M105.723 30H90.7227C89.2122 30 87.793 29.7135 86.4648 29.1406C85.1367 28.5547 83.9779 27.7669 82.9883 26.7773C82.0117 25.7747 81.237 24.6094 80.6641 23.2812C80.0911 21.9401 79.8047 20.5143 79.8047 19.0039V8.00781H83.8086V19.0039C83.8086 19.9674 83.9844 20.8724 84.3359 21.7188C84.7005 22.5521 85.1953 23.2878 85.8203 23.9258C86.4453 24.5508 87.1745 25.0521 88.0078 25.4297C88.8542 25.7943 89.7591 25.9831 90.7227 25.9961H101.719V8.00781H105.723V30Z" fill="white"/>
<path d="M115.488 30H111.484V8.00781H132.578C134.089 8.00781 135.508 8.30078 136.836 8.88672C138.164 9.45964 139.316 10.2474 140.293 11.25C141.283 12.2396 142.064 13.4049 142.637 14.7461C143.21 16.0742 143.496 17.4935 143.496 19.0039V30H139.492V19.0039C139.492 18.0404 139.31 17.1354 138.945 16.2891C138.581 15.4427 138.086 14.707 137.461 14.082C136.836 13.444 136.1 12.9427 135.254 12.5781C134.421 12.2005 133.529 12.0052 132.578 11.9922H129.492V30H125.488V11.9922H115.488V30Z" fill="white"/>
<path d="M183.312 21.9922C183.312 23.112 183.104 24.1602 182.688 25.1367C182.271 26.1003 181.698 26.9466 180.969 27.6758C180.253 28.3919 179.406 28.9583 178.43 29.375C177.466 29.7917 176.431 30 175.324 30H150.988V25.9961H175.324C175.884 25.9961 176.405 25.8919 176.887 25.6836C177.368 25.4753 177.785 25.1888 178.137 24.8242C178.501 24.4596 178.788 24.0365 178.996 23.5547C179.204 23.0599 179.309 22.5391 179.309 21.9922C179.309 21.4453 179.204 20.931 178.996 20.4492C178.788 19.9674 178.501 19.5443 178.137 19.1797C177.785 18.8151 177.368 18.5286 176.887 18.3203C176.405 18.112 175.884 18.0078 175.324 18.0078H158.996C157.902 18.0078 156.867 17.7995 155.891 17.3828C154.914 16.9661 154.061 16.3997 153.332 15.6836C152.616 14.9544 152.043 14.1016 151.613 13.125C151.197 12.1484 150.988 11.1068 150.988 10C150.988 8.90625 151.197 7.87109 151.613 6.89453C152.043 5.91797 152.616 5.07161 153.332 4.35547C154.061 3.6263 154.914 3.05339 155.891 2.63672C156.867 2.20703 157.902 1.99219 158.996 1.99219H181.32V5.99609H158.996C158.449 5.99609 157.928 6.10026 157.434 6.30859C156.952 6.51693 156.529 6.80339 156.164 7.16797C155.799 7.53255 155.513 7.96224 155.305 8.45703C155.096 8.9388 154.992 9.45312 154.992 10C154.992 10.5469 155.096 11.0677 155.305 11.5625C155.513 12.0443 155.799 12.4674 156.164 12.832C156.529 13.1966 156.952 13.4831 157.434 13.6914C157.928 13.8997 158.449 14.0039 158.996 14.0039H175.324C176.431 14.0039 177.466 14.2188 178.43 14.6484C179.406 15.0651 180.253 15.638 180.969 16.3672C181.698 17.0833 182.271 17.9297 182.688 18.9062C183.104 19.8698 183.312 20.8984 183.312 21.9922Z" fill="white"/>
<path d="M213.469 19.0039C213.469 20.5143 213.182 21.9401 212.609 23.2812C212.036 24.6094 211.255 25.7747 210.266 26.7773C209.276 27.7669 208.117 28.5547 206.789 29.1406C205.461 29.7135 204.042 30 202.531 30H193.547V25.9961H202.531C203.495 25.9831 204.393 25.7943 205.227 25.4297C206.073 25.0521 206.809 24.5508 207.434 23.9258C208.059 23.2878 208.553 22.5521 208.918 21.7188C209.283 20.8724 209.465 19.9674 209.465 19.0039C209.465 18.0404 209.283 17.1354 208.918 16.2891C208.553 15.4297 208.059 14.6875 207.434 14.0625C206.809 13.4245 206.073 12.9232 205.227 12.5586C204.393 12.181 203.495 11.9922 202.531 11.9922H191.535V38.0078H187.531V8.00781H202.531C204.042 8.02083 205.461 8.32031 206.789 8.90625C208.117 9.47917 209.276 10.2669 210.266 11.2695C211.255 12.2591 212.036 13.418 212.609 14.7461C213.182 16.0742 213.469 17.4935 213.469 19.0039Z" fill="white"/>
<path d="M269.66 11.9922H254.66C254.243 11.9922 253.853 12.0768 253.488 12.2461C253.124 12.4023 252.805 12.6172 252.531 12.8906C252.258 13.1641 252.043 13.4831 251.887 13.8477C251.73 14.2122 251.652 14.5964 251.652 15V30H247.648V15C247.648 14.0234 247.831 13.112 248.195 12.2656C248.56 11.4193 249.061 10.6836 249.699 10.0586C250.337 9.42057 251.079 8.91927 251.926 8.55469C252.772 8.1901 253.684 8.00781 254.66 8.00781H269.66V11.9922Z" fill="white"/>
<path d="M280.617 30H276.613V11.9922H270.617V8.00781H276.613V0H280.617V8.00781H294.621V11.9922H280.617V30Z" fill="white"/>
<path d="M320.734 23.0078C320.734 23.9714 320.552 24.8828 320.188 25.7422C319.823 26.5885 319.322 27.3307 318.684 27.9688C318.059 28.5938 317.316 29.0885 316.457 29.4531C315.611 29.8177 314.706 30 313.742 30H296.73V25.9961H313.742C314.146 25.9961 314.53 25.918 314.895 25.7617C315.259 25.6055 315.578 25.3906 315.852 25.1172C316.125 24.8438 316.34 24.5312 316.496 24.1797C316.652 23.8151 316.73 23.4245 316.73 23.0078C316.73 22.6042 316.652 22.2201 316.496 21.8555C316.34 21.4909 316.125 21.1719 315.852 20.8984C315.578 20.625 315.259 20.4102 314.895 20.2539C314.53 20.0846 314.146 20 313.742 20H302.727C301.893 20 301.112 19.8438 300.383 19.5312C299.654 19.2188 299.016 18.7956 298.469 18.2617C297.935 17.7148 297.512 17.0768 297.199 16.3477C296.887 15.6185 296.73 14.8372 296.73 14.0039C296.73 13.1706 296.887 12.3893 297.199 11.6602C297.512 10.931 297.935 10.2995 298.469 9.76562C299.016 9.21875 299.654 8.78906 300.383 8.47656C301.112 8.16406 301.893 8.00781 302.727 8.00781H318.742V11.9922H302.727C302.167 11.9922 301.691 12.1875 301.301 12.5781C300.923 12.9557 300.734 13.431 300.734 14.0039C300.734 14.5638 300.923 15.0391 301.301 15.4297C301.691 15.8073 302.167 15.9961 302.727 15.9961H313.742C314.706 15.9961 315.611 16.1784 316.457 16.543C317.316 16.9076 318.059 17.4089 318.684 18.0469C319.322 18.6849 319.823 19.4271 320.188 20.2734C320.552 21.1198 320.734 22.0312 320.734 23.0078Z" fill="white"/>
</svg>
